<svg xmlns="http://www.w3.org/2000/svg" xmlns:xlink="http://www.w3.org/1999/xlink" width="500" zoomAndPan="magnify" viewBox="0 0 375 374.999991" height="500" preserveAspectRatio="xMidYMid meet" version="1.0"><defs><filter x="0%" y="0%" width="100%" height="100%" id="954f58072e"><feColorMatrix values="0 0 0 0 1 0 0 0 0 1 0 0 0 0 1 0 0 0 1 0" color-interpolation-filters="sRGB"/></filter><mask id="5bec40c8dd"><g filter="url(#954f58072e)"><rect x="-37.5" width="450" fill="#000000" y="-37.499999" height="449.999989" fill-opacity="0.07"/></g></mask><clipPath id="9b2aafcdc9"><path d="M 0.960938 0.960938 L 158 0.960938 L 158 158 L 0.960938 158 Z M 0.960938 0.960938 " clip-rule="nonzero"/></clipPath><clipPath id="229f29faba"><path d="M 175 0.960938 L 331.710938 0.960938 L 331.710938 158 L 175 158 Z M 175 0.960938 " clip-rule="nonzero"/></clipPath><clipPath id="900b2a87aa"><path d="M 175 175 L 331.710938 175 L 331.710938 331.710938 L 175 331.710938 Z M 175 175 " clip-rule="nonzero"/></clipPath><clipPath id="4b302978fe"><path d="M 0.960938 175 L 158 175 L 158 331.710938 L 0.960938 331.710938 Z M 0.960938 175 " clip-rule="nonzero"/></clipPath><clipPath id="d2ffe81aa8"><rect x="0" width="333" y="0" height="333"/></clipPath></defs><g mask="url(#5bec40c8dd)"><g transform="matrix(1, 0, 0, 1, 21, 21)"><g clip-path="url(#d2ffe81aa8)"><g clip-path="url(#9b2aafcdc9)"><path fill="#000000" d="M 79.117188 0.953125 C 99.847656 0.953125 119.726562 9.1875 134.382812 23.847656 C 149.042969 38.503906 157.277344 58.382812 157.277344 79.113281 L 157.277344 150.203125 C 157.277344 154.109375 154.109375 157.277344 150.203125 157.277344 L 79.113281 157.277344 C 58.382812 157.277344 38.503906 149.042969 23.847656 134.382812 C 9.1875 119.726562 0.953125 99.847656 0.953125 79.117188 L 0.953125 79.113281 C 0.953125 58.382812 9.1875 38.503906 23.847656 23.847656 C 38.503906 9.1875 58.382812 0.953125 79.113281 0.953125 Z M 79.117188 15.101562 L 79.113281 15.101562 C 62.136719 15.101562 45.855469 21.847656 33.851562 33.851562 C 21.847656 45.855469 15.101562 62.136719 15.101562 79.113281 L 15.101562 79.117188 C 15.101562 96.09375 21.847656 112.375 33.851562 124.378906 C 45.855469 136.382812 62.136719 143.128906 79.113281 143.128906 L 143.128906 143.128906 L 143.128906 79.113281 C 143.128906 62.136719 136.382812 45.855469 124.378906 33.851562 C 112.375 21.847656 96.09375 15.101562 79.117188 15.101562 Z M 79.117188 15.101562 " fill-opacity="1" fill-rule="evenodd"/></g><g clip-path="url(#229f29faba)"><path fill="#000000" d="M 332.03125 79.117188 C 332.03125 99.847656 323.796875 119.726562 309.140625 134.382812 C 294.480469 149.042969 274.601562 157.277344 253.871094 157.277344 L 182.785156 157.277344 C 178.878906 157.277344 175.710938 154.109375 175.710938 150.203125 L 175.710938 79.113281 C 175.710938 58.382812 183.945312 38.503906 198.601562 23.847656 C 213.261719 9.1875 233.140625 0.953125 253.871094 0.953125 C 274.601562 0.953125 294.480469 9.1875 309.140625 23.847656 C 323.796875 38.503906 332.03125 58.382812 332.03125 79.113281 Z M 317.882812 79.117188 L 317.882812 79.113281 C 317.882812 62.136719 311.140625 45.855469 299.136719 33.851562 C 287.128906 21.847656 270.847656 15.101562 253.871094 15.101562 C 236.894531 15.101562 220.609375 21.847656 208.605469 33.851562 C 196.601562 45.855469 189.859375 62.136719 189.859375 79.113281 L 189.859375 143.128906 L 253.871094 143.128906 C 270.847656 143.128906 287.128906 136.382812 299.136719 124.378906 C 311.140625 112.375 317.882812 96.09375 317.882812 79.117188 Z M 317.882812 79.117188 " fill-opacity="1" fill-rule="evenodd"/></g><g clip-path="url(#900b2a87aa)"><path fill="#000000" d="M 253.871094 332.03125 C 233.140625 332.03125 213.257812 323.796875 198.601562 309.140625 C 183.945312 294.480469 175.710938 274.601562 175.710938 253.871094 L 175.710938 182.785156 C 175.710938 178.878906 178.875 175.710938 182.785156 175.710938 L 253.871094 175.710938 C 274.601562 175.710938 294.480469 183.945312 309.140625 198.601562 C 323.796875 213.261719 332.03125 233.140625 332.03125 253.871094 C 332.03125 274.601562 323.796875 294.480469 309.140625 309.140625 C 294.480469 323.796875 274.601562 332.03125 253.871094 332.03125 Z M 253.871094 317.882812 C 270.847656 317.882812 287.128906 311.140625 299.136719 299.136719 C 311.140625 287.128906 317.882812 270.847656 317.882812 253.871094 C 317.882812 236.894531 311.140625 220.609375 299.136719 208.605469 C 287.128906 196.601562 270.847656 189.859375 253.871094 189.859375 L 189.859375 189.859375 L 189.859375 253.871094 C 189.859375 270.847656 196.601562 287.128906 208.605469 299.136719 C 220.609375 311.140625 236.890625 317.882812 253.871094 317.882812 Z M 253.871094 317.882812 " fill-opacity="1" fill-rule="evenodd"/></g><g clip-path="url(#4b302978fe)"><path fill="#000000" d="M 0.953125 253.871094 C 0.953125 233.140625 9.1875 213.257812 23.847656 198.601562 C 38.503906 183.945312 58.382812 175.710938 79.113281 175.710938 L 150.203125 175.710938 C 154.109375 175.710938 157.277344 178.875 157.277344 182.785156 L 157.277344 253.871094 C 157.277344 274.601562 149.042969 294.480469 134.382812 309.140625 C 119.726562 323.796875 99.847656 332.03125 79.117188 332.03125 L 79.113281 332.03125 C 58.382812 332.03125 38.503906 323.796875 23.847656 309.140625 C 9.1875 294.480469 0.953125 274.601562 0.953125 253.871094 Z M 15.101562 253.871094 C 15.101562 270.847656 21.847656 287.128906 33.851562 299.136719 C 45.855469 311.140625 62.136719 317.882812 79.113281 317.882812 L 79.117188 317.882812 C 96.09375 317.882812 112.375 311.140625 124.378906 299.136719 C 136.382812 287.128906 143.128906 270.847656 143.128906 253.871094 L 143.128906 189.859375 L 79.113281 189.859375 C 62.136719 189.859375 45.855469 196.601562 33.851562 208.605469 C 21.847656 220.609375 15.101562 236.890625 15.101562 253.871094 Z M 15.101562 253.871094 " fill-opacity="1" fill-rule="evenodd"/></g></g></g></g></svg>