<?xml version="1.0" encoding="UTF-8"?>
<svg version="1.1" xmlns="http://www.w3.org/2000/svg" width="500" height="500">
<path d="M0 0 C6.6752034 -0.02526945 13.35039457 -0.04283268 20.02563477 -0.05493164 C22.29842591 -0.05997325 24.5712138 -0.06680637 26.84399414 -0.07543945 C30.10303551 -0.08751261 33.36203417 -0.09322987 36.62109375 -0.09765625 C37.64400009 -0.10281754 38.66690643 -0.10797882 39.72080994 -0.11329651 C40.66170975 -0.11337204 41.60260956 -0.11344757 42.57202148 -0.11352539 C43.40475082 -0.115746 44.23748016 -0.11796661 45.09544373 -0.12025452 C47 0 47 0 48 1 C48.09880956 2.36272928 48.12907588 3.73051197 48.13130188 5.09681702 C48.13531006 5.98065063 48.13931824 6.86448425 48.14344788 7.77510071 C48.14291916 8.75303085 48.14239044 9.730961 48.1418457 10.73852539 C48.14532013 11.76325958 48.14879456 12.78799377 48.15237427 13.84378052 C48.15975231 16.08202123 48.16508671 18.32026935 48.16866493 20.55851936 C48.17583256 24.12317403 48.19151012 27.68769118 48.21000671 31.25230408 C48.26240022 41.39303477 48.31026012 51.53369803 48.32592773 61.67456055 C48.33613467 67.87454516 48.36579428 74.07419494 48.40724754 80.27404594 C48.41940513 82.61823402 48.42470733 84.9624698 48.42244911 87.30668831 C48.4079038 107.37191814 49.88671675 127.49407925 56.8125 146.5 C57.15796875 147.48718018 57.5034375 148.47436035 57.859375 149.49145508 C62.62398279 162.8810065 68.16691893 175.07614158 76 187 C76.92232422 188.47533203 76.92232422 188.47533203 77.86328125 189.98046875 C83.68476458 199.10440847 90.5656215 207.74556781 98.359375 215.28125 C100 217 100 217 100 219 C101.98 219.99 101.98 219.99 104 221 C104 221.66 104 222.32 104 223 C104.54269531 223.22816406 105.08539063 223.45632813 105.64453125 223.69140625 C108.68750837 225.38194909 111.1063365 227.63333163 113.6875 229.9375 C125.28868391 239.98073916 138.30323367 247.57865376 152.14111328 254.10693359 C154.12215074 255.05868498 156.07273357 256.06162106 158.02734375 257.06640625 C188.01505574 272.09470588 226.46827462 274.39945649 259 269 C260.24265625 268.79375 261.4853125 268.5875 262.765625 268.375 C284.92227048 264.2959523 305.16754292 256.37670607 324 244 C325.02673828 243.32710938 325.02673828 243.32710938 326.07421875 242.640625 C334.95396431 236.75314343 343.09227535 230.47534323 350.71118164 223.01269531 C354.81932934 219 354.81932934 219 357 219 C357.268125 218.41734375 357.53625 217.8346875 357.8125 217.234375 C359.01480991 214.97213399 360.33825913 213.19423682 362 211.25 C362.515625 210.63640625 363.03125 210.0228125 363.5625 209.390625 C365 208 365 208 367 208 C367.309375 207.38125 367.61875 206.7625 367.9375 206.125 C368.625 204.75 369.3125 203.375 370 202 C370.66 202 371.32 202 372 202 C372.26683594 201.25363281 372.53367187 200.50726563 372.80859375 199.73828125 C373.97462315 197.05832516 375.16925339 195.38509831 377.0625 193.1875 C394.42633956 171.32991314 404.14544591 142.58175986 407.70629883 115.22143555 C407.93626355 113.48207647 408.21218282 111.74878103 408.50552368 110.01898193 C409.1932505 105.18170247 409.17625802 100.35306928 409.20532227 95.47485352 C409.21522186 94.43995285 409.22512146 93.40505219 409.23532104 92.33879089 C409.26677938 88.93551888 409.29163129 85.53223293 409.31640625 82.12890625 C409.33698931 79.76236112 409.35798614 77.39581956 409.37937927 75.02928162 C409.43446025 68.81347549 409.48393097 62.59763696 409.53222656 56.3817749 C409.58254384 50.03378428 409.63817644 43.68584048 409.69335938 37.33789062 C409.80076995 24.89196712 409.90225265 12.44600289 410 0 C416.6752034 -0.02526945 423.35039457 -0.04283268 430.02563477 -0.05493164 C432.29842591 -0.05997325 434.5712138 -0.06680637 436.84399414 -0.07543945 C440.10303551 -0.08751261 443.36203417 -0.09322987 446.62109375 -0.09765625 C447.64400009 -0.10281754 448.66690643 -0.10797882 449.72080994 -0.11329651 C450.66170975 -0.11337204 451.60260956 -0.11344757 452.57202148 -0.11352539 C453.40475082 -0.115746 454.23748016 -0.11796661 455.09544373 -0.12025452 C457 0 457 0 458 1 C458.09746848 2.34721437 458.12631582 3.69948124 458.12698364 5.05021667 C458.12980347 5.92325943 458.13262329 6.79630219 458.13552856 7.69580078 C458.13249222 9.14418335 458.13249222 9.14418335 458.12939453 10.62182617 C458.13202301 12.13913078 458.13202301 12.13913078 458.13470459 13.68708801 C458.13913069 17.05573204 458.13617963 20.42432412 458.1328125 23.79296875 C458.133486 26.13454702 458.13445642 28.47612522 458.13571167 30.81770325 C458.13719021 35.74330303 458.1350316 40.66888474 458.13037109 45.59448242 C458.12471443 51.87631032 458.1279258 58.15809511 458.13394356 64.43992138 C458.1375799 69.2864056 458.13639584 74.13287985 458.13381577 78.9793644 C458.13315284 81.29276853 458.13395251 83.6061736 458.13629532 85.91957664 C458.16061944 116.73324518 458.16061944 116.73324518 455.375 130.8125 C455.20170166 131.68938477 455.02840332 132.56626953 454.84985352 133.46972656 C448.96991026 162.06455509 438.38450841 187.76377355 423.25 212.6875 C422.52876953 213.90083008 422.52876953 213.90083008 421.79296875 215.13867188 C421.09880859 216.28239258 421.09880859 216.28239258 420.390625 217.44921875 C419.7723584 218.47535278 419.7723584 218.47535278 419.14160156 219.5222168 C418.76487305 220.00988525 418.38814453 220.49755371 418 221 C417.34 221 416.68 221 416 221 C415.71125 221.763125 415.4225 222.52625 415.125 223.3125 C414 226 414 226 412 229 C411.34 229 410.68 229 410 229 C409.731875 229.7425 409.46375 230.485 409.1875 231.25 C408.04723249 233.89061949 406.90619694 235.85552844 405 238 C404.34 238 403.68 238 403 238 C402.6596875 238.81210937 402.6596875 238.81210937 402.3125 239.640625 C400.58704892 242.74232872 398.38706787 245.12700101 396 247.75 C395.54882812 248.25660156 395.09765625 248.76320313 394.6328125 249.28515625 C393.46639188 250.56545817 392.23716029 251.78791729 391 253 C390.34 253 389.68 253 389 253 C388.75378906 253.57878906 388.50757813 254.15757812 388.25390625 254.75390625 C373.99679544 280.29234462 328.07852599 300.1576078 302 309 C300.83984375 309.39759521 300.83984375 309.39759521 299.65625 309.80322266 C286.3618277 314.27875971 272.88546499 317.06931654 259 319 C258.25355225 319.1045752 257.50710449 319.20915039 256.73803711 319.31689453 C212.36613144 324.6265157 164.63932521 316.63508919 125 296 C124.33162109 295.65211426 123.66324219 295.30422852 122.97460938 294.94580078 C106.86441931 286.44320047 92.48293685 275.94041673 78.55541992 264.24584961 C77.10017766 263.08023962 75.55136145 262.03424096 74 261 C74 260.34 74 259.68 74 259 C73.34 259 72.68 259 72 259 C72 258.34 72 257.68 72 257 C71.34 257 70.68 257 70 257 C70 256.34 70 255.68 70 255 C69.1028125 254.5978125 69.1028125 254.5978125 68.1875 254.1875 C66.00152146 253.00082594 64.58667406 251.90400887 63 250 C63 249.34 63 248.68 63 248 C62.34 248 61.68 248 61 248 C61 247.34 61 246.68 61 246 C60.34 246 59.68 246 59 246 C59 245.34 59 244.68 59 244 C58.34 244 57.68 244 57 244 C54.07860169 240.88823488 51.58250404 237.39426833 49 234 C48.58008789 233.45359863 48.16017578 232.90719727 47.72753906 232.34423828 C36.59573603 217.80668287 27.2543351 202.5638599 19.81835938 185.82470703 C19.10566671 184.23560649 18.3602755 182.6612507 17.609375 181.08984375 C3.06599987 150.57636999 -0.06611501 118.49113886 -0.3515625 85.17578125 C-0.37471282 82.77776362 -0.39810338 80.37974829 -0.42172241 77.98173523 C-0.46991771 72.98336945 -0.51489448 67.98498772 -0.55761719 62.98657227 C-0.61277683 56.56932629 -0.67657711 50.15219905 -0.74279213 43.73505878 C-0.79272812 38.79647374 -0.83790248 33.85785398 -0.88163376 28.91921043 C-0.90322898 26.55121601 -0.92638074 24.18323526 -0.9510994 21.81527138 C-0.98481849 18.52180673 -1.01208205 15.22835144 -1.03759766 11.93481445 C-1.04897263 10.95254883 -1.0603476 9.9702832 -1.07206726 8.95825195 C-1.07766159 8.06556107 -1.08325592 7.17287018 -1.08901978 6.25312805 C-1.09601709 5.47542714 -1.10301441 4.69772623 -1.11022377 3.89645863 C-1 2 -1 2 0 0 Z " fill="#EBE2F8" transform="translate(21,139)"/>
<path d="M0 0 C0.77118164 0.00142502 1.54236328 0.00285004 2.33691406 0.00431824 C3.2112207 0.00124161 4.08552734 -0.00183502 4.98632812 -0.00500488 C5.93217773 0.00218063 6.87802734 0.00936615 7.85253906 0.01676941 C8.8215918 0.01722763 9.79064453 0.01768585 10.7890625 0.01815796 C12.84018171 0.0211822 14.89129858 0.02907362 16.94238281 0.04142761 C20.08960061 0.05966319 23.236524 0.06193747 26.38378906 0.06169128 C28.37337495 0.06660718 30.36295884 0.07243581 32.35253906 0.07926941 C33.77131348 0.08093864 33.77131348 0.08093864 35.21875 0.0826416 C36.53020996 0.09221138 36.53020996 0.09221138 37.86816406 0.10197449 C38.6393457 0.10578629 39.41052734 0.10959808 40.20507812 0.11352539 C42.10253906 0.24723816 42.10253906 0.24723816 44.10253906 1.24723816 C44.17198002 8.64451064 44.22531998 16.0417131 44.25797558 23.43924522 C44.27364691 26.8740577 44.2949112 30.30864757 44.32885742 33.74333191 C44.36761986 37.6899196 44.38223618 41.63641644 44.39550781 45.58317566 C44.41099167 46.81965851 44.42647552 48.05614136 44.44242859 49.33009338 C44.44265518 50.47112518 44.44288177 51.61215698 44.44311523 52.7877655 C44.44977707 53.79592316 44.4564389 54.80408081 44.46330261 55.8427887 C44.34425064 56.63625702 44.22519867 57.42972534 44.10253906 58.24723816 C41.04111025 60.2881907 40.4051241 60.50012763 36.95410156 60.52189636 C35.70765869 60.53619438 35.70765869 60.53619438 34.43603516 60.55078125 C33.54223145 60.54986984 32.64842773 60.54895844 31.72753906 60.54801941 C30.80666504 60.55230453 29.88579102 60.55658966 28.93701172 60.56100464 C26.99024274 60.56674705 25.0434523 60.56724886 23.09667969 60.56291199 C20.11388699 60.55975019 17.13208423 60.58321851 14.14941406 60.60856628 C12.25879032 60.61083905 10.3681639 60.61154288 8.47753906 60.61051941 C7.58373535 60.61972916 6.68993164 60.6289389 5.76904297 60.63842773 C4.5226001 60.62908455 4.5226001 60.62908455 3.25097656 60.61955261 C2.52056152 60.62018204 1.79014648 60.62081146 1.03759766 60.62145996 C-1.54877631 60.12128 -2.3930436 59.40340562 -3.89746094 57.24723816 C-4.27168274 54.81192017 -4.27168274 54.81192017 -4.26977539 51.88957214 C-4.27600418 50.79511276 -4.28223297 49.70065338 -4.28865051 48.57302856 C-4.27944077 47.39172867 -4.27023102 46.21042877 -4.26074219 44.99333191 C-4.26124069 43.78153763 -4.2617392 42.56974335 -4.26225281 41.32122803 C-4.25991092 38.75821799 -4.25017572 36.19520571 -4.23364258 33.63224792 C-4.21003488 29.69706287 -4.21308294 25.7625542 -4.21972656 21.82731628 C-4.21415059 19.3409841 -4.20704123 16.85465478 -4.19824219 14.36833191 C-4.19915359 13.18500778 -4.200065 12.00168365 -4.20100403 10.78250122 C-4.19147202 9.691194 -4.18194 8.59988678 -4.17211914 7.47550964 C-4.16751175 6.51193039 -4.16290436 5.54835114 -4.15815735 4.55557251 C-3.82479661 1.60383244 -3.03546314 0.39551925 0 0 Z " fill="#E5DEED" transform="translate(24.8974609375,72.75276184082031)"/>
<path d="M0 0 C0.77405182 0.01686859 1.54810364 0.03373718 2.34561157 0.05111694 C3.17176971 0.07501495 3.99792786 0.09891296 4.84912109 0.12353516 C6.13198502 0.15539413 6.13198502 0.15539413 7.44076538 0.18789673 C9.24459785 0.23407283 11.04836186 0.28299384 12.85205078 0.33447266 C15.61916056 0.41250184 18.38638498 0.47956592 21.15380859 0.54541016 C22.90643015 0.59163028 24.65903516 0.63848349 26.41162109 0.68603516 C27.2418277 0.7058847 28.0720343 0.72573425 28.92739868 0.7461853 C34.76726298 0.92244985 34.76726298 0.92244985 36.99755859 2.03759766 C37.06699955 9.43487013 37.12033951 16.8320726 37.15299511 24.22960472 C37.16866645 27.6644172 37.18993074 31.09900707 37.22387695 34.53369141 C37.26263939 38.48027909 37.27725571 42.42677593 37.29052734 46.37353516 C37.3060112 47.61001801 37.32149506 48.84650085 37.33744812 50.12045288 C37.33767471 51.26148468 37.33790131 52.40251648 37.33813477 53.578125 C37.3447966 54.58628265 37.35145844 55.59444031 37.35832214 56.63314819 C37.23927017 57.42661652 37.1202182 58.22008484 36.99755859 59.03759766 C33.95349892 61.06697077 33.35878769 61.28875539 29.94091797 61.29638672 C29.12997681 61.30269104 28.31903564 61.30899536 27.48352051 61.31549072 C26.61159058 61.31144226 25.73966064 61.3073938 24.84130859 61.30322266 C23.94263062 61.30513611 23.04395264 61.30704956 22.11804199 61.309021 C20.21834025 61.31038175 18.31862918 61.30669293 16.41894531 61.29833984 C13.50873964 61.28763877 10.59915128 61.2982388 7.68896484 61.31103516 C5.8439114 61.30971354 3.99885833 61.30715111 2.15380859 61.30322266 C0.8459137 61.30929535 0.8459137 61.30929535 -0.48840332 61.31549072 C-1.70481506 61.30603424 -1.70481506 61.30603424 -2.94580078 61.29638672 C-3.65845093 61.29479553 -4.37110107 61.29320435 -5.10534668 61.29156494 C-7.00244141 61.03759766 -7.00244141 61.03759766 -10.00244141 59.03759766 C-10.37666321 56.68457031 -10.37666321 56.68457031 -10.37475586 53.70166016 C-10.38098465 52.58710449 -10.38721344 51.47254883 -10.39363098 50.32421875 C-10.38442123 49.11588379 -10.37521149 47.90754883 -10.36572266 46.66259766 C-10.36622116 45.42719238 -10.36671967 44.19178711 -10.36723328 42.91894531 C-10.36428775 39.63158241 -10.3472343 36.34464899 -10.32501221 33.05737305 C-10.31495157 31.03963646 -10.31462875 29.02215053 -10.31811523 27.00439453 C-10.3245111 23.14034661 -10.31662541 19.27662291 -10.30322266 15.41259766 C-10.30413406 14.2042627 -10.30504547 12.99592773 -10.3059845 11.75097656 C-10.29645248 10.6364209 -10.28692047 9.52186523 -10.27709961 8.37353516 C-10.27249222 7.3891748 -10.26788483 6.40481445 -10.26313782 5.390625 C-10.00244141 3.03759766 -10.00244141 3.03759766 -8.00244141 1.03759766 C-5.27833844 0.1329037 -2.85572695 -0.07148332 0 0 Z " fill="#EAE4F1" transform="translate(441.00244140625,71.96240234375)"/>
</svg>
